<svg class="svg-icon" style="width: 1em;height: 1em;vertical-align: middle;overflow: hidden;" viewBox="0 0 1024 1024" fill="#CCC" version="1.1" xmlns="http://www.w3.org/2000/svg"><path d="M896 715.264l80.810667 161.664A42.624 42.624 0 0 1 938.666667 938.666667H512a42.581333 42.581333 0 0 1-38.186667-61.738667l11.818667-23.594667H192A64 64 0 0 1 128 789.333333V425.6C76.501333 386.602667 42.666667 325.418667 42.666667 256c0-117.632 95.701333-213.333333 213.333333-213.333333 69.418667 0 130.56 33.834667 169.557333 85.333333H832A64 64 0 0 1 896 192v523.264z m-170.666667-150.528L581.034667 853.333333h288.597333L725.333333 564.736zM213.333333 465.024V768h314.965334l158.848-317.738667c14.506667-28.928 61.866667-28.928 76.330666 0L810.666667 544.597333V213.333333h-345.685334A213.589333 213.589333 0 0 1 213.333333 465.024zM256 384a128 128 0 1 0 0-256 128 128 0 0 0 0 256z"  /></svg>