<?xml version="1.0" encoding="utf-8" standalone="yes"?>
<!DOCTYPE svg PUBLIC "-//W3C//DTD SVG 1.1//EN" "http://www.w3.org/Graphics/SVG/1.1/DTD/svg11.dtd">
<svg xmlns="http://www.w3.org/2000/svg" xmlns:xlink="http://www.w3.org/1999/xlink" xmlns:dc="http://purl.org/dc/elements/1.1/" xmlns:cc="http://web.resource.org/cc/" xmlns:rdf="http://www.w3.org/1999/02/22-rdf-syntax-ns#" xmlns:sodipodi="http://sodipodi.sourceforge.net/DTD/sodipodi-0.dtd" xmlns:inkscape="http://www.inkscape.org/namespaces/inkscape" cursor="crosshair" style="zoom: 1;" height="400px" id="svg_document" width="400px" baseProfile="full" version="1.1" preserveAspectRatio="xMidYMid meet" viewBox="0 0 400 400"><!-- Created with macSVG - https://macsvg.org/ - https://github.com/dsward2/macsvg/ --><title id="svg_document_title">logo.svg</title><defs id="svg_document_defs"></defs><g id="main_group"><polygon points="300,140 320,150 300,160" stroke="tomato" id="beak" stroke-width="15" fill="tomato" transform=""></polygon><line stroke="tomato" y1="280.000000px" id="feet1" stroke-width="15" x1="260.000000px" y2="300.000000px" x2="300.000000px" transform=""></line><line stroke="tomato" y1="300px" id="feet2" stroke-width="15" x1="214px" d="" y2="320px" x2="254px" transform=""></line><path stroke="peru" id="clockwork" stroke-width="15" d="M150,200 L150,150 A15,15 0 0 0 180,150 A15,15 0 0 0 150,150 A15,15 0 0 0 120,150 A10,10 0 0 0 150,150 " fill="white" transform=""></path><path stroke="steelblue" id="body" stroke-width="15px" d="M200,150 S200,100 250,100 C250,100 300,100 300,150 L300,200 C300,200 300,300 200,300 C200,300 100,300 100,200 L150,200 L200,200 L200,150 " fill="steelblue" transform=""></path><circle stroke="white" id="eye" cy="150px" stroke-width="15" fill="white" r="7.5" cx="250px" transform=""></circle></g></svg>